<?xml version="1.0" standalone="no"?>
<!DOCTYPE svg PUBLIC "-//W3C//DTD SVG 20010904//EN"
 "http://www.w3.org/TR/2001/REC-SVG-20010904/DTD/svg10.dtd">
<svg version="1.0" xmlns="http://www.w3.org/2000/svg"
 width="500.000000pt" height="500.000000pt" viewBox="0 0 500.000000 500.000000"
 preserveAspectRatio="xMidYMid meet">

<g transform="translate(0.000000,500.000000) scale(0.100000,-0.100000)"
fill="#001750" stroke="none">
<path d="M1677 3794 c-16 -17 -5 -43 27 -62 41 -24 61 -59 81 -144 20 -87 22
-1808 1 -1903 -17 -81 -40 -122 -82 -147 -20 -11 -34 -28 -34 -39 0 -19 21
-19 834 -19 l834 0 5 23 c3 12 9 120 13 240 7 214 6 217 -14 217 -14 0 -25
-12 -37 -42 -27 -69 -83 -155 -135 -208 l-49 -50 -295 0 -296 0 0 465 0 465
-135 0 -135 0 0 -466 0 -465 -52 3 -53 3 -3 513 -2 512 250 0 c138 0 283 -5
322 -11 160 -25 247 -77 299 -181 21 -42 35 -58 47 -56 16 3 17 27 17 278 0
273 0 275 -21 278 -15 2 -23 -3 -27 -20 -20 -76 -111 -164 -197 -188 -113 -33
-192 -40 -437 -40 l-253 0 0 496 0 496 298 -5 c316 -5 361 -11 480 -60 124
-51 213 -140 286 -284 35 -71 60 -90 73 -57 3 8 -3 114 -13 235 l-18 219 -772
0 c-425 0 -779 2 -786 5 -8 3 -17 2 -21 -1z"/>
<path d="M2260 3090 l0 -241 133 3 132 3 6 160 c3 88 11 174 18 190 6 17 30
46 52 66 24 21 39 42 35 48 -5 7 -67 11 -192 11 l-184 0 0 -240z"/>
</g>
</svg>
